<?xml version="1.0" encoding="UTF-8" standalone="no"?>
<!DOCTYPE svg PUBLIC "-//W3C//DTD SVG 1.1//EN" "http://www.w3.org/Graphics/SVG/1.1/DTD/svg11.dtd">
<!-- Created with Vectornator (http://vectornator.io/) -->
<svg height="100%" stroke-miterlimit="10" style="fill-rule:nonzero;clip-rule:evenodd;stroke-linecap:round;stroke-linejoin:round;" version="1.1" viewBox="0 0 3370.82 2384.24" width="100%" xml:space="preserve" xmlns="http://www.w3.org/2000/svg" xmlns:vectornator="http://vectornator.io" xmlns:xlink="http://www.w3.org/1999/xlink">
<defs/>
<g id="Layer-1" vectornator:layerName="Layer 1">
<path d="M973.942 790.943L973.897 806.331C973.911 801.215 973.942 796.06 973.942 790.943Z" fill="#d8c8c8" fill-rule="evenodd" opacity="1" stroke="none"/>
<path d="M976.282 779.11C976.282 786.004 976.106 792.881 975.967 799.762C976.124 799.273 976.26 798.766 976.417 798.277L976.282 779.11Z" fill="#d8c8c8" fill-rule="evenodd" opacity="1" stroke="none"/>
<g opacity="1">
<path d="M1172.28 558.906C1171.04 558.917 1169.78 558.968 1168.53 559C1162.97 559.142 1157.42 559.436 1151.88 559.906C1128.71 561.873 1105.77 566.703 1083.81 574.344C1055.36 584.245 1028.59 598.799 1004.75 617.219C971.61 642.829 944.31 675.934 925.531 713.375C912.659 739.039 903.888 766.568 899.344 794.906C897.529 806.223 896.482 817.703 896.094 829.156C895.807 837.595 895.937 846.027 895.938 854.469C895.939 869.538 895.936 884.618 895.938 899.688C895.944 954.069 895.963 1008.46 895.969 1062.84C895.988 1232.54 896.012 1402.21 896.031 1571.91C896.039 1640.7 896.023 1709.52 896.031 1778.31C896.033 1795.35 896.058 1812.37 896.062 1829.41C896.065 1837.85 895.93 1846.31 896.219 1854.75C896.435 1861.08 896.859 1867.39 897.5 1873.69C900.154 1899.77 906.512 1925.5 916.344 1949.81C941.747 2012.62 989.899 2064.79 1050.47 2095.16C1075.06 2107.48 1101.47 2116.16 1128.59 2120.75C1139.44 2122.59 1150.39 2123.79 1161.38 2124.34C1169.43 2124.75 1177.5 2124.69 1185.56 2124.69L1213.09 2124.69C1247.82 2124.68 1282.56 2124.67 1317.28 2124.66C1477.8 2124.6 1638.32 2124.51 1798.84 2124.44C1895.16 2124.39 1991.47 2124.36 2087.78 2124.31C2111.37 2124.3 2134.94 2124.29 2158.53 2124.28C2169.58 2124.28 2180.67 2124.47 2191.72 2124.09C2201.17 2123.77 2210.6 2122.96 2219.97 2121.69C2268.14 2115.12 2314.2 2095.76 2352.66 2066.03C2385.69 2040.49 2412.91 2007.49 2431.62 1970.16C2445.32 1942.83 2454.46 1913.26 2458.56 1882.97C2459.83 1873.6 2460.59 1864.16 2460.91 1854.72C2461.1 1848.91 2461.07 1843.1 2461.06 1837.28C2461.06 1830.73 2461.07 1824.18 2461.06 1817.62C2461.05 1792.07 2461.04 1766.52 2461.03 1740.97C2460.99 1655.79 2460.95 1570.61 2460.91 1485.44C2460.84 1355.71 2460.75 1225.98 2460.72 1096.25C2460.7 1031.39 2460.7 966.521 2460.69 901.656C2460.68 885.932 2460.66 870.194 2460.66 854.469C2460.65 841.287 2460.77 828.146 2459.66 815C2457.95 794.979 2454.1 775.124 2448.12 755.938C2437.87 722.98 2421.4 691.989 2399.84 665.031C2375.68 634.808 2345.24 609.704 2310.94 591.781C2286.7 579.115 2260.57 570.098 2233.69 565.062C2221.39 562.759 2208.93 561.287 2196.44 560.656C2189.05 560.283 2181.68 560.311 2174.28 560.312C2166.42 560.314 2158.55 560.311 2150.69 560.312C2118.58 560.319 2086.48 560.337 2054.38 560.344C1848.64 560.388 1642.92 560.364 1437.19 560.375C1376.25 560.378 1315.31 560.403 1254.38 560.406C1236.03 560.407 1217.69 560.405 1199.34 560.406C1194.39 560.407 1189.45 560.406 1184.5 560.406C1181.66 559.474 1178.69 558.881 1175.53 558.906C1174.45 558.915 1174.88 559.05 1174.44 558.906C1174.09 558.795 1173.7 558.903 1173.34 558.906C1172.98 558.909 1172.64 558.903 1172.28 558.906ZM1184.5 613.906C1186.17 613.906 1187.83 613.906 1189.5 613.906C1198.67 613.907 1207.86 613.906 1217.03 613.906C1249.14 613.908 1281.24 613.936 1313.34 613.938C1424.07 613.944 1534.8 613.931 1645.53 613.938C1741.85 613.943 1838.15 613.96 1934.47 613.969C1994.75 613.974 2055.03 613.987 2115.31 614C2131.69 614.004 2148.06 613.996 2164.44 614C2174.19 614.002 2183.97 613.816 2193.72 614.312C2206.29 614.953 2218.81 616.646 2231.09 619.375C2260.77 625.965 2289.04 638.707 2313.66 656.531C2341.9 676.979 2365.26 703.968 2381.41 734.875C2391.03 753.296 2398.09 773.075 2402.25 793.438C2404.52 804.547 2405.93 815.832 2406.5 827.156C2406.83 833.635 2406.78 840.14 2406.78 846.625C2406.78 854.487 2406.78 862.325 2406.78 870.188C2406.77 901.637 2406.76 933.113 2406.75 964.562C2406.72 1081.84 2406.68 1199.1 2406.62 1316.38C2406.56 1453.97 2406.5 1591.56 2406.44 1729.16C2406.42 1757.98 2406.42 1786.83 2406.41 1815.66C2406.4 1822.86 2406.38 1830.07 2406.38 1837.28C2406.37 1843.76 2406.43 1850.22 2406.09 1856.69C2405.71 1864.26 2404.93 1871.82 2403.78 1879.31C2400.07 1903.51 2392.36 1927.09 2381 1948.78C2361.51 1986.01 2331.49 2017.46 2295.22 2038.69C2269.89 2053.51 2241.65 2063.22 2212.56 2067.16C2205.03 2068.18 2197.44 2068.81 2189.84 2069.06C2185.31 2069.21 2180.79 2069.19 2176.25 2069.19C2170.35 2069.18 2164.43 2069.19 2158.53 2069.19C2136.25 2069.18 2114 2069.17 2091.72 2069.16C1992.78 2069.11 1893.84 2069.05 1794.91 2069C1631.76 2068.92 1468.61 2068.87 1305.47 2068.81C1273.36 2068.8 1241.26 2068.79 1209.16 2068.78C1200.64 2068.78 1192.14 2068.78 1183.62 2068.78C1177.16 2068.78 1170.68 2068.8 1164.22 2068.47C1154.19 2067.96 1144.18 2066.76 1134.31 2064.91C1099.76 2058.41 1066.93 2043.63 1039.12 2022.12C1010.72 2000.16 987.739 1971.35 972.688 1938.75C963.447 1918.74 957.242 1897.34 954.281 1875.5C953.263 1867.99 952.63 1860.42 952.375 1852.84C952.046 1843.08 952.248 1833.27 952.25 1823.5C952.255 1803.19 952.279 1782.9 952.281 1762.59C952.289 1693.8 952.273 1624.98 952.281 1556.19C952.302 1367.49 952.323 1178.79 952.344 990.094C952.348 954.713 952.371 919.349 952.375 883.969C952.376 872.83 952.374 861.67 952.375 850.531C952.376 844.039 952.278 837.553 952.5 831.062C952.716 824.736 953.193 818.412 953.938 812.125C958.373 774.674 972.514 738.578 994.625 708.031C1022.8 669.106 1063.4 639.708 1109.31 625.438C1124.46 620.728 1140.06 617.765 1155.84 616.281C1160.54 615.84 1165.25 615.619 1169.97 615.5C1171.25 615.468 1172.53 615.447 1173.81 615.438C1174.17 615.435 1173.8 615.423 1175.97 615.406C1178.96 615.383 1181.8 614.791 1184.5 613.906Z" fill="#ffffff" stroke="none"/>
</g>
<g opacity="1">
<path d="M1671.5 120.094C1668.24 120.074 1665.14 120.721 1662.22 121.719C1661.68 121.731 1661.13 121.735 1660.59 121.75C1653.98 121.935 1647.38 122.303 1640.78 122.812C1619.53 124.453 1598.4 127.997 1577.75 133.25C1509.78 150.537 1447.56 186.901 1398.88 237.344C1358.49 279.195 1327.96 330.324 1310.41 385.781C1298.58 423.147 1292.69 462.345 1292.84 501.531C1292.94 524.259 1295.36 546.981 1299.72 569.281C1301.09 576.28 1302.14 583.866 1306.84 589.562C1307.78 590.702 1308.72 591.858 1309.84 592.812C1311.54 594.251 1313.27 595.732 1315.28 596.688C1318.16 598.054 1321.26 599.004 1324.38 599.688C1326.2 600.088 1328.1 599.834 1329.97 599.906C1330.61 599.931 1331.27 599.821 1331.91 599.781C1333.29 599.694 1334.68 599.618 1336.06 599.531C1337.4 599.447 1338.72 599.365 1340.06 599.281C1346.83 598.858 1353.6 598.446 1360.38 598.031C1376.35 597.054 1392.33 596.086 1408.31 595.281C1421.54 594.615 1434.76 594.023 1448 594.062C1497.44 594.211 1546.58 600.589 1595.94 602.562C1613.1 603.249 1630.29 603.193 1647.47 603.188C1683.05 603.176 1718.64 602.479 1754.22 602.469C1767.45 602.465 1780.68 602.526 1793.91 602.656C1798.21 602.699 1802.51 602.754 1806.81 602.812C1808.1 602.83 1809.37 602.824 1810.66 602.844C1811.12 602.851 1811.59 602.867 1812.06 602.875C1812.21 602.877 1812.38 602.872 1812.53 602.875C1812.57 602.877 1812.62 602.905 1812.66 602.906C1813.06 602.922 1813.47 602.921 1813.88 602.938C1815.01 602.983 1816.15 603.017 1817.28 603.062C1820.62 603.196 1823.97 603.334 1827.31 603.469C1837.31 603.871 1847.28 604.276 1857.28 604.688C1887.2 605.918 1917.12 607.198 1947.03 608.531C1963.68 609.274 1980.35 610.014 1997 610.844C2000.19 611.003 2003.37 611.173 2006.56 611.344C2010.55 611.557 2014.31 611.8 2018.31 610.875C2019.41 610.621 2020.5 610.319 2021.56 609.938C2023.69 609.173 2025.63 608.172 2027.53 606.938C2029.24 605.825 2030.78 604.569 2032.22 603.125C2034.8 600.535 2036.82 597.418 2038.25 594.062C2039.69 590.695 2040.46 586.73 2041.28 583.188C2041.98 580.146 2042.65 577.089 2043.28 574.031C2044.16 569.724 2044.99 565.398 2045.72 561.062C2049.07 541.228 2050.77 521.135 2050.88 501.031C2050.98 480.927 2049.49 460.842 2046.41 440.969C2041.3 408.103 2031.84 375.95 2018.31 345.562C1989.09 279.906 1941.01 223.188 1881.19 183.406C1853.14 164.754 1822.65 149.994 1790.72 139.312C1762.03 129.717 1732.16 123.809 1702.03 121.312C1694.66 120.702 1687.27 120.333 1679.88 120.188C1678.23 120.155 1676.58 120.105 1674.94 120.094L1671.5 120.094ZM1663.03 175.219C1665.62 176.017 1668.31 176.608 1671.16 176.625C1672.3 176.631 1671.89 176.485 1672.28 176.625C1672.64 176.755 1673.06 176.623 1673.44 176.625C1673.82 176.627 1674.21 176.623 1674.59 176.625C1676.31 176.634 1678.03 176.675 1679.75 176.719C1686.69 176.895 1693.61 177.291 1700.53 177.906C1723.46 179.946 1746.19 184.463 1768.16 191.344C1808.6 204.014 1846.39 224.76 1878.88 251.969C1905.04 273.882 1927.71 299.911 1945.81 328.844C1965.2 359.838 1979.25 394.149 1987.16 429.844C1991.64 450.099 1994.09 470.682 1994.72 491.406C1995.3 510.527 1993.99 529.731 1991.03 548.625C1990.72 550.625 1990.26 552.6 1989.91 554.594C1989.1 554.557 1988.3 554.506 1987.5 554.469C1970.09 553.67 1952.67 552.913 1935.25 552.188C1908.28 551.064 1881.32 550.001 1854.34 548.969C1845.17 548.618 1835.99 548.281 1826.81 547.938C1822.38 547.772 1817.93 547.535 1813.5 547.438C1802.15 547.187 1790.82 547.226 1779.47 547.188C1763.62 547.133 1747.78 547.162 1731.94 547.312C1707.75 547.543 1683.63 548.013 1659.34 548.156C1639.21 548.275 1619.03 548.471 1598.91 547.781C1577.61 547.052 1556.37 545.383 1535.12 543.812C1504.23 541.529 1473.25 539.358 1442.25 539.656C1429.99 539.774 1417.74 540.381 1405.5 541.031C1391.79 541.759 1378.08 542.604 1364.38 543.469C1359.7 543.764 1355.02 544.042 1350.34 544.344C1349.52 539.004 1348.75 533.664 1348.22 528.281C1346.57 511.505 1346.41 494.598 1347.53 477.781C1349.71 445.073 1356.83 412.719 1368.69 382.156C1385.68 338.359 1412.37 298.382 1446.22 265.812C1471.59 241.397 1500.92 221.158 1532.75 206.094C1565.56 190.563 1600.96 180.692 1637.06 176.906C1645.38 176.034 1653.74 175.486 1662.09 175.25C1662.41 175.241 1662.72 175.227 1663.03 175.219Z" fill="#ffffff" stroke="none"/>
</g>
<path d="M1897.67 1145.15L1897.67 1619.75" fill="none" fill-rule="evenodd" opacity="1" stroke="#ffffff" stroke-linecap="round" stroke-linejoin="round" stroke-width="60.5"/>
<path d="M1451.14 1142.61L1451.14 1617.21" fill="none" fill-rule="evenodd" opacity="1" stroke="#ffffff" stroke-linecap="round" stroke-linejoin="round" stroke-width="60.5"/>
</g>
</svg>
